<svg width="28" height="22" viewBox="0 0 28 22" fill="none" xmlns="http://www.w3.org/2000/svg">
<path d="M28 11.3086C28 11.618 27.8771 11.9148 27.6583 12.1336C27.4395 12.3523 27.1428 12.4753 26.8333 12.4753H1.16667C0.857247 12.4753 0.560501 12.3523 0.341709 12.1336C0.122917 11.9148 0 11.618 0 11.3086C0 10.9992 0.122917 10.7024 0.341709 10.4836C0.560501 10.2648 0.857247 10.1419 1.16667 10.1419H26.8333C27.1428 10.1419 27.4395 10.2648 27.6583 10.4836C27.8771 10.7024 28 10.9992 28 11.3086ZM1.16667 3.14193H26.8333C27.1428 3.14193 27.4395 3.01901 27.6583 2.80022C27.8771 2.58143 28 2.28468 28 1.97526C28 1.66584 27.8771 1.3691 27.6583 1.1503C27.4395 0.93151 27.1428 0.808594 26.8333 0.808594H1.16667C0.857247 0.808594 0.560501 0.93151 0.341709 1.1503C0.122917 1.3691 0 1.66584 0 1.97526C0 2.28468 0.122917 2.58143 0.341709 2.80022C0.560501 3.01901 0.857247 3.14193 1.16667 3.14193ZM26.8333 19.4753H1.16667C0.857247 19.4753 0.560501 19.5982 0.341709 19.817C0.122917 20.0358 0 20.3325 0 20.6419C0 20.9513 0.122917 21.2481 0.341709 21.4669C0.560501 21.6857 0.857247 21.8086 1.16667 21.8086H26.8333C27.1428 21.8086 27.4395 21.6857 27.6583 21.4669C27.8771 21.2481 28 20.9513 28 20.6419C28 20.3325 27.8771 20.0358 27.6583 19.817C27.4395 19.5982 27.1428 19.4753 26.8333 19.4753Z" fill="#A3AED0"/>
</svg>
